# xmcd CD database file
#
# Track frame offsets:
#	150
#	24975
#	46710
#	74927
#	97772
#	118212
#	139242
#	165482
#	190000
#	219942
#
# Disc length: 3168 seconds
#
# Revision: 0
# Processed by: cddbd v1.4PL0 Copyright (c) Steve Scherf et al.
# Submitted via: CDex 1.50Beta7
#
DISCID=850c5e0a
DTITLE=Dale Barlow - Playground
DYEAR=1997
DGENRE=Jazz
TTITLE0=Space Cadet
TTITLE1=Too Many Spy Movies
TTITLE2=Lost City
TTITLE3=See-Saw
TTITLE4=Monkey Bars
TTITLE5=Hittin' Myths
TTITLE6=Ballad Earth
TTITLE7=Roundabout
TTITLE8=Glasshouse
TTITLE9=Slipprydip
EXTD=YEAR: 1997
EXTT0=
EXTT1=
EXTT2=
EXTT3=
EXTT4=
EXTT5=
EXTT6=
EXTT7=
EXTT8=
EXTT9=
PLAYORDER=
